<?xml version="1.0" encoding="UTF-8" standalone="no"?>
<svg
   xmlns:dc="http://purl.org/dc/elements/1.1/"
   xmlns:cc="http://creativecommons.org/ns#"
   xmlns:rdf="http://www.w3.org/1999/02/22-rdf-syntax-ns#"
   xmlns:svg="http://www.w3.org/2000/svg"
   xmlns="http://www.w3.org/2000/svg"
   xmlns:sodipodi="http://sodipodi.sourceforge.net/DTD/sodipodi-0.dtd"
   xmlns:inkscape="http://www.inkscape.org/namespaces/inkscape"
   version="1.1"
   id="Capa_1"
   x="0px"
   y="0px"
   width="522.468px"
   height="522.469px"
   viewBox="0 0 522.468 522.469"
   style="enable-background:new 0 0 522.468 522.469;"
   xml:space="preserve"
   sodipodi:docname="code-purple.svg"
   inkscape:version="1.0 (4035a4fb49, 2020-05-01)"><metadata
   id="metadata1281"><rdf:RDF><cc:Work
       rdf:about=""><dc:format>image/svg+xml</dc:format><dc:type
         rdf:resource="http://purl.org/dc/dcmitype/StillImage" /><dc:title></dc:title></cc:Work></rdf:RDF></metadata><defs
   id="defs1279" /><sodipodi:namedview
   inkscape:document-rotation="0"
   pagecolor="#ff00ff"
   bordercolor="#666666"
   borderopacity="1"
   objecttolerance="10"
   gridtolerance="10"
   guidetolerance="10"
   inkscape:pageopacity="0"
   inkscape:pageshadow="2"
   inkscape:window-width="1920"
   inkscape:window-height="1001"
   id="namedview1277"
   showgrid="false"
   inkscape:zoom="1.5254494"
   inkscape:cx="261.23401"
   inkscape:cy="261.2345"
   inkscape:window-x="-9"
   inkscape:window-y="-9"
   inkscape:window-maximized="1"
   inkscape:current-layer="Capa_1" />
<g
   id="g1244">
	<g
   id="g1242">
		<path
   d="M325.762,70.513l-17.706-4.854c-2.279-0.76-4.524-0.521-6.707,0.715c-2.19,1.237-3.669,3.094-4.429,5.568L190.426,440.53    c-0.76,2.475-0.522,4.809,0.715,6.995c1.237,2.19,3.09,3.665,5.568,4.425l17.701,4.856c2.284,0.766,4.521,0.526,6.71-0.712    c2.19-1.243,3.666-3.094,4.425-5.564L332.042,81.936c0.759-2.474,0.523-4.808-0.716-6.999    C330.088,72.747,328.237,71.272,325.762,70.513z"
   id="path1236" />
		<path
   d="M166.167,142.465c0-2.474-0.953-4.665-2.856-6.567l-14.277-14.276c-1.903-1.903-4.093-2.857-6.567-2.857    s-4.665,0.955-6.567,2.857L2.856,254.666C0.95,256.569,0,258.759,0,261.233c0,2.474,0.953,4.664,2.856,6.566l133.043,133.044    c1.902,1.906,4.089,2.854,6.567,2.854s4.665-0.951,6.567-2.854l14.277-14.268c1.903-1.902,2.856-4.093,2.856-6.57    c0-2.471-0.953-4.661-2.856-6.563L51.107,261.233l112.204-112.201C165.217,147.13,166.167,144.939,166.167,142.465z"
   id="path1238" />
		<path
   d="M519.614,254.663L386.567,121.619c-1.902-1.902-4.093-2.857-6.563-2.857c-2.478,0-4.661,0.955-6.57,2.857l-14.271,14.275    c-1.902,1.903-2.851,4.09-2.851,6.567s0.948,4.665,2.851,6.567l112.206,112.204L359.163,373.442    c-1.902,1.902-2.851,4.093-2.851,6.563c0,2.478,0.948,4.668,2.851,6.57l14.271,14.268c1.909,1.906,4.093,2.854,6.57,2.854    c2.471,0,4.661-0.951,6.563-2.854L519.614,267.8c1.903-1.902,2.854-4.096,2.854-6.57    C522.468,258.755,521.517,256.565,519.614,254.663z"
   id="path1240" />
	</g>
</g>
<g
   id="g1246">
</g>
<g
   id="g1248">
</g>
<g
   id="g1250">
</g>
<g
   id="g1252">
</g>
<g
   id="g1254">
</g>
<g
   id="g1256">
</g>
<g
   id="g1258">
</g>
<g
   id="g1260">
</g>
<g
   id="g1262">
</g>
<g
   id="g1264">
</g>
<g
   id="g1266">
</g>
<g
   id="g1268">
</g>
<g
   id="g1270">
</g>
<g
   id="g1272">
</g>
<g
   id="g1274">
</g>
<path
   style="fill:#926fb1;stroke:#926fb1;stroke-width:3.27297;stroke-linecap:square;fill-opacity:1;stroke-opacity:1"
   d="M 138.9558,402.47764 C 137.86363,401.93854 106.40102,370.89704 69.038899,333.4965 14.329155,278.73052 1.0216807,265.08087 0.66544106,263.36502 -0.39818689,258.24196 -3.1006589,261.17818 69.711186,188.34726 c 61.231124,-61.24717 68.873724,-68.67404 71.077444,-69.07107 1.45267,-0.26172 3.23539,-0.12751 4.33027,0.32601 1.02359,0.42398 6.03359,4.97927 11.13334,10.12286 l 9.27227,9.35198 v 3.53863 3.53862 l -57.51535,57.54011 -57.515347,57.5401 57.515347,57.5401 57.51535,57.5401 v 3.53691 3.5369 l -9.01374,9.14191 c -10.77582,10.92905 -13.00583,12.19265 -17.55497,9.94722 z"
   id="path1283" /><path
   style="fill:#926fb1;stroke:#926fb1;stroke-width:3.27297;stroke-linecap:square;fill-opacity:1;stroke-opacity:1"
   d="m 205.51272,454.03174 c -4.86741,-1.35559 -9.43984,-2.78316 -10.16094,-3.17237 -2.46352,-1.32968 -4.36825,-3.97484 -4.68029,-6.49963 -0.24543,-1.9859 11.11962,-42.06352 53.40882,-188.34048 l 53.7206,-185.817753 2.35657,-2.159641 c 1.79481,-1.644811 2.94643,-2.15964 4.83091,-2.15964 2.30471,0 17.35783,3.762766 21.2314,5.307127 2.80658,1.118959 5.23102,4.124178 5.57556,6.911187 0.24695,1.9976 -11.01583,41.71732 -53.40764,188.34919 l -53.7206,185.81776 -2.35658,2.15964 c -3.10051,2.84141 -5.36724,2.78806 -16.79781,-0.39539 z"
   id="path1285" /><path
   style="fill:#926fb1;stroke:#926fb1;stroke-width:3.27297;stroke-linecap:square;fill-opacity:1;stroke-opacity:1"
   d="m 376.93762,402.55344 c -1.08165,-0.48559 -6.02282,-4.99635 -10.98037,-10.02391 l -9.01374,-9.14102 v -3.5369 -3.53691 l 57.51535,-57.5401 57.51534,-57.5401 -57.51534,-57.5401 -57.51535,-57.54011 v -3.53862 -3.53863 l 9.27227,-9.35198 c 5.09975,-5.14359 10.10975,-9.69888 11.13333,-10.12286 1.09489,-0.45352 2.87761,-0.58773 4.33028,-0.32601 2.20372,0.39703 9.84632,7.8239 71.07744,69.07107 72.81184,72.83092 70.10938,69.8947 69.04575,75.01776 -0.35625,1.71586 -13.66575,15.36752 -68.38444,70.14246 -37.36815,37.40657 -68.87534,68.45479 -70.01597,68.99606 -2.51753,1.19465 -3.89105,1.20525 -6.46455,0.0499 z"
   id="path1287" /></svg>
