<?xml version="1.0" encoding="UTF-8" standalone="no"?>
<svg
   xmlns:dc="http://purl.org/dc/elements/1.1/"
   xmlns:cc="http://creativecommons.org/ns#"
   xmlns:rdf="http://www.w3.org/1999/02/22-rdf-syntax-ns#"
   xmlns:svg="http://www.w3.org/2000/svg"
   xmlns="http://www.w3.org/2000/svg"
   xmlns:sodipodi="http://sodipodi.sourceforge.net/DTD/sodipodi-0.dtd"
   xmlns:inkscape="http://www.inkscape.org/namespaces/inkscape"
   inkscape:version="1.0 (4035a4fb49, 2020-05-01)"
   sodipodi:docname="grid-white.svg"
   xml:space="preserve"
   style="enable-background:new 0 0 360.49 360.49;"
   viewBox="0 0 360.49 360.49"
   y="0px"
   x="0px"
   id="Capa_1"
   version="1.1"><metadata
   id="metadata2056"><rdf:RDF><cc:Work
       rdf:about=""><dc:format>image/svg+xml</dc:format><dc:type
         rdf:resource="http://purl.org/dc/dcmitype/StillImage" /><dc:title></dc:title></cc:Work></rdf:RDF></metadata><defs
   id="defs2054" /><sodipodi:namedview
   inkscape:current-layer="Capa_1"
   inkscape:window-maximized="0"
   inkscape:window-y="0"
   inkscape:window-x="-8"
   inkscape:cy="179.37634"
   inkscape:cx="180.245"
   inkscape:zoom="2.3024218"
   showgrid="false"
   id="namedview2052"
   inkscape:window-height="991"
   inkscape:window-width="1203"
   inkscape:pageshadow="2"
   inkscape:pageopacity="0"
   guidetolerance="10"
   gridtolerance="10"
   objecttolerance="10"
   borderopacity="1"
   bordercolor="#666666"
   pagecolor="#ff00ff" />
<g
   id="g2019">
	<g
   id="g2017">
		<g
   id="g2015">
			<path
   id="path1997"
   d="M96.653,0H13.061C7.29,0,2.612,4.678,2.612,10.449v83.592c0,5.771,4.678,10.449,10.449,10.449h83.592     c5.771,0,10.449-4.678,10.449-10.449V10.449C107.102,4.678,102.424,0,96.653,0z" />
			<path
   id="path1999"
   d="M222.041,0h-83.592C132.678,0,128,4.678,128,10.449v83.592c0,5.771,4.678,10.449,10.449,10.449h83.592     c5.771,0,10.449-4.678,10.449-10.449V10.449C232.49,4.678,227.812,0,222.041,0z" />
			<path
   id="path2001"
   d="M96.653,125.388H13.061c-5.771,0-10.449,4.678-10.449,10.449v83.592c0,5.771,4.678,10.449,10.449,10.449h83.592     c5.771,0,10.449-4.678,10.449-10.449v-83.592C107.102,130.066,102.424,125.388,96.653,125.388z" />
			<path
   id="path2003"
   d="M222.041,125.388h-83.592c-5.771,0-10.449,4.678-10.449,10.449v83.592c0,5.771,4.678,10.449,10.449,10.449h83.592     c5.771,0,10.449-4.678,10.449-10.449v-83.592C232.49,130.066,227.812,125.388,222.041,125.388z" />
			<path
   id="path2005"
   d="M347.429,0h-83.592c-5.771,0-10.449,4.678-10.449,10.449v83.592c0,5.771,4.678,10.449,10.449,10.449h83.592     c5.771,0,10.449-4.678,10.449-10.449V10.449C357.878,4.678,353.199,0,347.429,0z" />
			<path
   id="path2007"
   d="M347.429,125.388h-83.592c-5.771,0-10.449,4.678-10.449,10.449v83.592c0,5.771,4.678,10.449,10.449,10.449h83.592     c5.771,0,10.449-4.678,10.449-10.449v-83.592C357.878,130.066,353.199,125.388,347.429,125.388z" />
			<path
   id="path2009"
   d="M96.653,256H13.061c-5.771,0-10.449,4.678-10.449,10.449v83.592c0,5.771,4.678,10.449,10.449,10.449h83.592     c5.771,0,10.449-4.678,10.449-10.449v-83.592C107.102,260.678,102.424,256,96.653,256z" />
			<path
   id="path2011"
   d="M222.041,256h-83.592c-5.771,0-10.449,4.678-10.449,10.449v83.592c0,5.771,4.678,10.449,10.449,10.449h83.592     c5.771,0,10.449-4.678,10.449-10.449v-83.592C232.49,260.678,227.812,256,222.041,256z" />
			<path
   id="path2013"
   d="M347.429,256h-83.592c-5.771,0-10.449,4.678-10.449,10.449v83.592c0,5.771,4.678,10.449,10.449,10.449h83.592     c5.771,0,10.449-4.678,10.449-10.449v-83.592C357.878,260.678,353.199,256,347.429,256z" />
		</g>
	</g>
</g>
<g
   id="g2021">
</g>
<g
   id="g2023">
</g>
<g
   id="g2025">
</g>
<g
   id="g2027">
</g>
<g
   id="g2029">
</g>
<g
   id="g2031">
</g>
<g
   id="g2033">
</g>
<g
   id="g2035">
</g>
<g
   id="g2037">
</g>
<g
   id="g2039">
</g>
<g
   id="g2041">
</g>
<g
   id="g2043">
</g>
<g
   id="g2045">
</g>
<g
   id="g2047">
</g>
<g
   id="g2049">
</g>
<path
   id="path2619"
   d="m 10.638158,229.35227 c -3.3587806,-1.02169 -6.4096427,-3.90783 -7.310984,-6.91624 -0.719123,-2.40022 -0.719123,-87.19375 0,-89.59397 0.6526974,-2.17851 3.021777,-4.92559 5.297417,-6.14264 l 1.799216,-0.96225 h 44.518342 44.518342 l 2.081359,1.22344 c 2.63412,1.54835 4.47073,4.06977 5.07116,6.96205 0.32202,1.55117 0.43163,15.65472 0.34995,45.02948 l -0.11894,42.77092 -1.01623,2.06357 c -0.55893,1.13497 -1.73161,2.65529 -2.60595,3.3785 -3.236575,2.67711 -1.70268,2.59658 -48.684265,2.55562 -23.545936,-0.0206 -43.300673,-0.18635 -43.899417,-0.36848 z"
   style="fill:#ffffff;stroke:#ffffff;stroke-width:2.16848;stroke-linecap:square" /><path
   id="path2621"
   d="m 135.76845,229.259 c -1.84839,-0.53641 -4.07596,-2.03111 -5.24846,-3.52171 -2.26681,-2.88177 -2.17687,-0.88959 -2.17687,-48.21618 v -44.01269 l 1.10705,-2.22155 c 1.28491,-2.57849 3.37451,-4.3291 6.17253,-5.17118 2.9282,-0.88125 86.31639,-0.88125 89.24459,0 2.79802,0.84208 4.88762,2.59269 6.17253,5.17118 l 1.10705,2.22155 -0.01,44.10732 c -0.009,41.77795 -0.0515,44.19958 -0.80312,45.85426 -0.97851,2.15405 -2.93836,4.15903 -5.12871,5.24684 -1.59315,0.79121 -3.40002,0.82701 -45.30901,0.89763 -27.67989,0.0466 -44.19057,-0.0834 -45.12804,-0.35547 z"
   style="fill:#ffffff;stroke:#ffffff;stroke-width:2.16848;stroke-linecap:square" /><path
   id="path2623"
   d="M 11.155317,360.02585 C 7.7551812,359.35657 5.2384339,357.3062 3.7282612,353.97511 2.8555216,352.05005 2.8420482,351.36678 2.832653,308.55691 2.822066,260.31648 2.6860703,262.64549 5.6943912,259.54792 c 3.2374311,-3.33347 -0.8092375,-3.06425 48.1619448,-3.20418 32.521583,-0.0929 44.345385,0.006 45.717102,0.38341 2.551222,0.7015 5.499872,3.40499 6.477632,5.93904 0.74892,1.94095 0.79295,4.49106 0.79295,45.92193 v 43.86685 l -1.34342,2.38879 c -1.661,2.95348 -4.67711,4.95334 -8.088348,5.36304 -3.448499,0.41418 -84.092996,0.245 -86.256935,-0.18095 z"
   style="fill:#ffffff;stroke:#ffffff;stroke-width:2.16848;stroke-linecap:square" /><path
   id="path2625"
   d="m 136.73707,360.04252 c -2.40372,-0.48341 -3.97358,-1.34326 -5.6574,-3.09866 -2.89916,-3.02239 -2.73699,-0.13383 -2.7323,-48.66754 l 0.004,-43.98938 1.03483,-2.22246 c 0.56916,-1.22235 1.70159,-2.73101 2.51651,-3.35258 3.40573,-2.59768 0.69979,-2.45998 48.34205,-2.45998 47.64225,0 44.93631,-0.1377 48.34204,2.45998 0.81492,0.62157 1.94735,2.13023 2.51651,3.35258 l 1.03483,2.22246 -0.005,44.08402 c -0.005,42.02343 -0.043,44.16522 -0.81138,45.82131 -0.99823,2.15146 -3.18504,4.2687 -5.47256,5.29848 -1.63192,0.73464 -4.33214,0.78615 -44.51834,0.84921 -23.52957,0.0369 -43.59676,-0.0969 -44.59374,-0.29744 z"
   style="fill:#ffffff;stroke:#ffffff;stroke-width:2.16848;stroke-linecap:square" /><path
   id="path2627"
   d="m 262.25866,360.0914 c -2.90878,-0.48513 -5.72174,-2.51736 -7.26364,-5.24764 l -1.34905,-2.38879 -0.11882,-43.17759 c -0.13553,-49.25015 -0.32006,-46.47918 3.33063,-50.01364 1.32555,-1.28335 2.72918,-2.17033 3.97857,-2.51413 1.47704,-0.40645 12.23361,-0.50177 45.7973,-0.40587 48.65667,0.13903 44.88201,-0.0957 47.95954,2.98187 3.07876,3.07876 2.84378,-0.73823 2.97313,48.29469 l 0.1166,44.20201 -0.93151,2.16537 c -1.01191,2.35224 -3.12256,4.46728 -5.56783,5.57941 -1.39574,0.63479 -5.85209,0.7118 -44.33276,0.76606 -23.52958,0.0332 -43.59605,-0.0756 -44.59216,-0.24175 z"
   style="fill:#ffffff;stroke:#ffffff;stroke-width:2.16848;stroke-linecap:square" /><path
   id="path2629"
   d="m 260.81234,229.09488 c -2.61956,-0.81899 -4.91504,-2.80025 -6.15014,-5.30825 l -1.01623,-2.06357 -0.11894,-42.77092 c -0.0817,-29.37476 0.0279,-43.47831 0.34995,-45.02948 0.60043,-2.89228 2.43703,-5.4137 5.07116,-6.96205 l 2.08136,-1.22344 h 44.51834 44.51834 l 1.79922,0.96225 c 2.27564,1.21705 4.64472,3.96413 5.29742,6.14264 0.36822,1.22901 0.50148,13.37328 0.49452,45.06454 -0.009,42.70504 -0.0234,43.41264 -0.89426,45.3366 -1.0908,2.40973 -2.68529,4.13303 -4.9596,5.36026 l -1.7373,0.93746 -43.64969,0.0825 c -36.4708,0.0689 -43.97113,-0.018 -45.60415,-0.52854 z"
   style="fill:#ffffff;stroke:#ffffff;stroke-width:2.16848;stroke-linecap:square" /><path
   id="path2631"
   d="m 260.39175,103.67349 c -0.82853,-0.26627 -2.42186,-1.37199 -3.54074,-2.45715 -3.60612,-3.497428 -3.42286,-0.88951 -3.41742,-48.633229 0.003,-23.068178 0.1265,-42.678606 0.27526,-43.5787295 0.47222,-2.8571763 2.69624,-5.9422576 5.36619,-7.4437979 l 2.38878,-1.34342096 h 44.08402 c 39.76568,0 44.23602,0.0691319 45.63574,0.70573699 2.44527,1.11212507 4.55592,3.22716837 5.56783,5.57940647 l 0.93151,2.1653756 -0.1166,44.2020103 c -0.12935,49.032918 0.10563,45.21593 -2.97313,48.294688 -3.08148,3.08148 0.76454,2.84903 -48.39386,2.92489 -31.55522,0.0487 -44.73459,-0.0709 -45.80758,-0.41578 z"
   style="fill:#ffffff;stroke:#ffffff;stroke-width:2.16848;stroke-linecap:square" /><path
   id="path2633"
   d="m 134.87723,103.55298 c -2.5978,-1.12692 -4.42062,-2.82913 -5.49079,-5.127473 l -1.03483,-2.222455 0.005,-44.084017 c 0.006,-49.62216 -0.24642,-45.9050002 3.33617,-49.1349207 3.22951,-2.91159396 0.69146,-2.76695166 48.55193,-2.76695166 47.86046,0 45.32241,-0.1446423 48.55192,2.76695166 3.58259,3.2299205 3.3302,-0.4872393 3.33617,49.1349207 l 0.005,44.084017 -1.03483,2.222455 c -0.56915,1.222352 -1.70158,2.731013 -2.5165,3.352583 -3.40736,2.59892 -0.68325,2.46153 -48.43668,2.44298 -37.9139,-0.0147 -43.9731,-0.10414 -45.27314,-0.66809 z"
   style="fill:#ffffff;stroke:#ffffff;stroke-width:2.16848;stroke-linecap:square" /><path
   id="path2635"
   d="M 9.7081279,103.63396 C 6.753849,102.57858 4.5458399,100.32508 3.4653057,97.262514 2.9148833,95.702453 2.8237207,89.228144 2.8273573,51.955846 L 2.8316001,8.4693431 3.8511062,6.279968 C 4.9438182,3.9333836 6.8895257,2.0296387 9.3379937,0.91141507 10.689892,0.29399831 15.42464,0.20218541 52.119035,0.08183514 74.812531,0.00740503 94.782326,0.07157398 96.496351,0.22443286 100.76614,0.60521683 103.63818,2.3345784 105.5006,5.6462288 l 1.34342,2.3887891 V 51.901872 c 0,41.430871 -0.044,43.980973 -0.79295,45.92193 -0.94657,2.453228 -3.84083,5.169848 -6.289522,5.903488 -2.597886,0.77835 -87.860737,0.68998 -90.0534201,-0.0933 z"
   style="fill:#ffffff;stroke:#ffffff;stroke-width:2.16848;stroke-linecap:square" /></svg>
