<?xml version="1.0" encoding="UTF-8" standalone="no"?>
<svg
   xmlns:dc="http://purl.org/dc/elements/1.1/"
   xmlns:cc="http://creativecommons.org/ns#"
   xmlns:rdf="http://www.w3.org/1999/02/22-rdf-syntax-ns#"
   xmlns:svg="http://www.w3.org/2000/svg"
   xmlns="http://www.w3.org/2000/svg"
   xmlns:sodipodi="http://sodipodi.sourceforge.net/DTD/sodipodi-0.dtd"
   xmlns:inkscape="http://www.inkscape.org/namespaces/inkscape"
   version="1.1"
   id="Capa_1"
   x="0px"
   y="0px"
   viewBox="0 0 360.49 360.49"
   style="enable-background:new 0 0 360.49 360.49;"
   xml:space="preserve"
   sodipodi:docname="grid-seagrey.svg"
   inkscape:version="1.0 (4035a4fb49, 2020-05-01)"><metadata
   id="metadata2056"><rdf:RDF><cc:Work
       rdf:about=""><dc:format>image/svg+xml</dc:format><dc:type
         rdf:resource="http://purl.org/dc/dcmitype/StillImage" /><dc:title></dc:title></cc:Work></rdf:RDF></metadata><defs
   id="defs2054" /><sodipodi:namedview
   inkscape:document-rotation="0"
   pagecolor="#ff00ff"
   bordercolor="#666666"
   borderopacity="1"
   objecttolerance="10"
   gridtolerance="10"
   guidetolerance="10"
   inkscape:pageopacity="0"
   inkscape:pageshadow="2"
   inkscape:window-width="958"
   inkscape:window-height="991"
   id="namedview2052"
   showgrid="false"
   inkscape:zoom="2.3024218"
   inkscape:cx="180.245"
   inkscape:cy="179.37634"
   inkscape:window-x="-8"
   inkscape:window-y="0"
   inkscape:window-maximized="0"
   inkscape:current-layer="Capa_1" />
<g
   id="g2019">
	<g
   id="g2017">
		<g
   id="g2015">
			<path
   d="M96.653,0H13.061C7.29,0,2.612,4.678,2.612,10.449v83.592c0,5.771,4.678,10.449,10.449,10.449h83.592     c5.771,0,10.449-4.678,10.449-10.449V10.449C107.102,4.678,102.424,0,96.653,0z"
   id="path1997" />
			<path
   d="M222.041,0h-83.592C132.678,0,128,4.678,128,10.449v83.592c0,5.771,4.678,10.449,10.449,10.449h83.592     c5.771,0,10.449-4.678,10.449-10.449V10.449C232.49,4.678,227.812,0,222.041,0z"
   id="path1999" />
			<path
   d="M96.653,125.388H13.061c-5.771,0-10.449,4.678-10.449,10.449v83.592c0,5.771,4.678,10.449,10.449,10.449h83.592     c5.771,0,10.449-4.678,10.449-10.449v-83.592C107.102,130.066,102.424,125.388,96.653,125.388z"
   id="path2001" />
			<path
   d="M222.041,125.388h-83.592c-5.771,0-10.449,4.678-10.449,10.449v83.592c0,5.771,4.678,10.449,10.449,10.449h83.592     c5.771,0,10.449-4.678,10.449-10.449v-83.592C232.49,130.066,227.812,125.388,222.041,125.388z"
   id="path2003" />
			<path
   d="M347.429,0h-83.592c-5.771,0-10.449,4.678-10.449,10.449v83.592c0,5.771,4.678,10.449,10.449,10.449h83.592     c5.771,0,10.449-4.678,10.449-10.449V10.449C357.878,4.678,353.199,0,347.429,0z"
   id="path2005" />
			<path
   d="M347.429,125.388h-83.592c-5.771,0-10.449,4.678-10.449,10.449v83.592c0,5.771,4.678,10.449,10.449,10.449h83.592     c5.771,0,10.449-4.678,10.449-10.449v-83.592C357.878,130.066,353.199,125.388,347.429,125.388z"
   id="path2007" />
			<path
   d="M96.653,256H13.061c-5.771,0-10.449,4.678-10.449,10.449v83.592c0,5.771,4.678,10.449,10.449,10.449h83.592     c5.771,0,10.449-4.678,10.449-10.449v-83.592C107.102,260.678,102.424,256,96.653,256z"
   id="path2009" />
			<path
   d="M222.041,256h-83.592c-5.771,0-10.449,4.678-10.449,10.449v83.592c0,5.771,4.678,10.449,10.449,10.449h83.592     c5.771,0,10.449-4.678,10.449-10.449v-83.592C232.49,260.678,227.812,256,222.041,256z"
   id="path2011" />
			<path
   d="M347.429,256h-83.592c-5.771,0-10.449,4.678-10.449,10.449v83.592c0,5.771,4.678,10.449,10.449,10.449h83.592     c5.771,0,10.449-4.678,10.449-10.449v-83.592C357.878,260.678,353.199,256,347.429,256z"
   id="path2013" />
		</g>
	</g>
</g>
<g
   id="g2021">
</g>
<g
   id="g2023">
</g>
<g
   id="g2025">
</g>
<g
   id="g2027">
</g>
<g
   id="g2029">
</g>
<g
   id="g2031">
</g>
<g
   id="g2033">
</g>
<g
   id="g2035">
</g>
<g
   id="g2037">
</g>
<g
   id="g2039">
</g>
<g
   id="g2041">
</g>
<g
   id="g2043">
</g>
<g
   id="g2045">
</g>
<g
   id="g2047">
</g>
<g
   id="g2049">
</g>
<path
   style="fill:#67809f;fill-opacity:1;stroke:#67809f;stroke-width:2.1686;stroke-linecap:square;stroke-opacity:1"
   d="m 10.638227,229.37694 c -3.3587855,-1.0218 -6.4096502,-3.90825 -7.3109938,-6.91698 -0.7191235,-2.40048 -0.7191235,-87.20308 0,-89.60356 0.6526986,-2.17874 3.0217809,-4.92612 5.2974244,-6.1433 l 1.7992184,-0.96235 h 44.518398 44.518398 l 2.081368,1.22357 c 2.63412,1.54852 4.47072,4.07021 5.07116,6.9628 0.32202,1.55133 0.43163,15.65639 0.34995,45.0343 l -0.1189,42.77549 -1.01623,2.06379 c -0.55893,1.1351 -1.73162,2.65558 -2.60595,3.37886 -3.236583,2.6774 -1.70269,2.59686 -48.684328,2.5559 -23.545967,-0.0206 -43.300729,-0.18637 -43.899474,-0.36852 z"
   id="path2619" /><path
   style="fill:#67809f;stroke:#67809f;stroke-width:2.16848;stroke-linecap:square;fill-opacity:1;stroke-opacity:1"
   d="m 135.76845,229.259 c -1.84839,-0.53641 -4.07596,-2.03111 -5.24846,-3.52171 -2.26681,-2.88177 -2.17687,-0.88959 -2.17687,-48.21618 v -44.01269 l 1.10705,-2.22155 c 1.28491,-2.57849 3.37451,-4.3291 6.17253,-5.17118 2.9282,-0.88125 86.31639,-0.88125 89.24459,0 2.79802,0.84208 4.88762,2.59269 6.17253,5.17118 l 1.10705,2.22155 -0.01,44.10732 c -0.009,41.77795 -0.0515,44.19958 -0.80312,45.85426 -0.97851,2.15405 -2.93836,4.15903 -5.12871,5.24684 -1.59315,0.79121 -3.40002,0.82701 -45.30901,0.89763 -27.67989,0.0466 -44.19057,-0.0834 -45.12804,-0.35547 z"
   id="path2621" /><path
   style="fill:#67809f;fill-opacity:1;stroke:#67809f;stroke-width:2.1686;stroke-linecap:square;stroke-opacity:1"
   d="M 11.155386,360.0645 C 7.7552465,359.39515 5.2384955,357.34456 3.728322,354.01311 2.8555807,352.08785 2.8421066,351.4045 2.8327125,308.59005 2.8221774,260.34446 2.6861287,262.67372 5.6944533,259.57582 8.931889,256.24199 4.8852158,256.51124 53.85646,256.3713 c 32.52163,-0.0929 44.345437,0.006 45.717157,0.38345 2.551233,0.70157 5.499873,3.40535 6.477653,5.93967 0.74891,1.94116 0.79294,4.49154 0.79294,45.92685 v 43.87154 l -1.34341,2.38904 c -1.66102,2.9538 -4.67712,4.95387 -8.08837,5.36362 -3.448501,0.41422 -84.093102,0.24503 -86.257044,-0.18097 z"
   id="path2623" /><path
   style="fill:#67809f;fill-opacity:1;stroke:#67809f;stroke-width:2.1686;stroke-linecap:square;stroke-opacity:1"
   d="m 136.7373,360.08117 c -2.40373,-0.48346 -3.97359,-1.3434 -5.65741,-3.09899 -2.89917,-3.02271 -2.73699,-0.13385 -2.7323,-48.67275 l 0.004,-43.99409 1.03484,-2.22269 c 0.56916,-1.22248 1.7016,-2.7313 2.51651,-3.35294 3.40573,-2.59796 0.6998,-2.46024 48.34211,-2.46024 47.64232,0 44.93637,-0.13772 48.34211,2.46024 0.81492,0.62164 1.94735,2.13046 2.51651,3.35294 l 1.03483,2.22269 -0.005,44.08874 c -0.005,42.02793 -0.043,44.16995 -0.81138,45.82621 -0.99823,2.1517 -3.18504,4.26916 -5.47257,5.29905 -1.63192,0.73472 -4.33214,0.78624 -44.51839,0.8493 -23.52961,0.0369 -43.59682,-0.0969 -44.59379,-0.29747 z"
   id="path2625" /><path
   style="fill:#67809f;fill-opacity:1;stroke:#67809f;stroke-width:2.1686;stroke-linecap:square;stroke-opacity:1"
   d="m 262.25904,360.13006 c -2.90877,-0.48519 -5.72174,-2.51763 -7.26364,-5.24821 l -1.34906,-2.38904 -0.11876,-43.18221 c -0.13559,-49.25542 -0.32006,-46.48415 3.33063,-50.01899 1.32556,-1.28349 2.72919,-2.17056 3.97859,-2.5144 1.47703,-0.40649 12.23362,-0.50182 45.79735,-0.40591 48.65674,0.13904 44.88207,-0.0957 47.9596,2.98219 3.07877,3.07908 2.84378,-0.73831 2.97313,48.29985 l 0.11657,44.20674 -0.93151,2.1656 c -1.01191,2.3525 -3.12257,4.46776 -5.56784,5.58001 -1.39574,0.63486 -5.8521,0.71188 -44.33282,0.76614 -23.52961,0.0332 -43.5961,-0.0756 -44.59222,-0.24177 z"
   id="path2627" /><path
   style="fill:#67809f;fill-opacity:1;stroke:#67809f;stroke-width:2.1686;stroke-linecap:square;stroke-opacity:1"
   d="m 260.81273,229.11952 c -2.61956,-0.81908 -4.91505,-2.80055 -6.15015,-5.30882 l -1.01624,-2.06379 -0.11889,-42.77549 c -0.0817,-29.37791 0.0279,-43.48297 0.34995,-45.0343 0.60043,-2.89259 2.43703,-5.41428 5.07117,-6.9628 l 2.08136,-1.22357 h 44.5184 44.51839 l 1.79923,0.96235 c 2.27563,1.21718 4.64472,3.96456 5.29742,6.1433 0.36822,1.22914 0.50149,13.37471 0.49452,45.06936 -0.01,42.70961 -0.0234,43.41729 -0.89426,45.34145 -1.0908,2.40999 -2.68529,4.13348 -4.95961,5.36084 l -1.7373,0.93756 -43.64975,0.0825 c -36.47084,0.0689 -43.97118,-0.018 -45.6042,-0.5286 z"
   id="path2629" /><path
   style="fill:#67809f;fill-opacity:1;stroke:#67809f;stroke-width:2.1686;stroke-linecap:square;stroke-opacity:1"
   d="m 260.39213,103.68471 c -0.82853,-0.2663 -2.42185,-1.37214 -3.54073,-2.45741 -3.60613,-3.497806 -3.42288,-0.88961 -3.41743,-48.638435 0.003,-23.070646 0.12656,-42.6831722 0.27525,-43.5833919 0.47223,-2.8574822 2.69625,-5.9428935 5.36621,-7.4445944 l 2.38878,-1.3435647 h 44.08407 c 39.76574,0 44.23608,0.0691393 45.63581,0.70581249 2.44526,1.11224411 4.55592,3.22751351 5.56783,5.58000331 l 0.93152,2.1656074 -0.11657,44.2067398 c -0.1293,49.038163 0.10562,45.220768 -2.97314,48.299853 -3.08148,3.08181 0.76455,2.84934 -48.39391,2.92521 -31.55527,0.0487 -44.73465,-0.0709 -45.80765,-0.41583 z"
   id="path2631" /><path
   style="fill:#67809f;fill-opacity:1;stroke:#67809f;stroke-width:2.1686;stroke-linecap:square;stroke-opacity:1"
   d="m 134.87746,103.56419 c -2.59781,-1.12704 -4.42062,-2.82943 -5.4908,-5.128024 l -1.03483,-2.222691 0.005,-44.088737 c 0.005,-49.6274677 -0.24641,-45.9099103 3.33619,-49.1401763 3.22951,-2.91190548 0.69145,-2.7672477 48.55199,-2.7672477 47.86052,0 45.32246,-0.14465778 48.55198,2.7672477 3.58258,3.230266 3.33021,-0.4872914 3.33617,49.1401763 l 0.005,44.088737 -1.03482,2.222691 c -0.56915,1.222482 -1.70158,2.731304 -2.51651,3.352944 -3.40736,2.59919 -0.68324,2.46179 -48.43674,2.44324 -37.91395,-0.0147 -43.97316,-0.10415 -45.2732,-0.66816 z"
   id="path2633" /><path
   style="fill:#67809f;fill-opacity:1;stroke:#67809f;stroke-width:2.1686;stroke-linecap:square;stroke-opacity:1"
   d="M 9.7081952,103.64518 C 6.7539133,102.58968 4.5459014,100.33594 3.4653656,97.273048 2.9149429,95.712822 2.8237795,89.23782 2.8274162,51.961533 L 2.8316577,8.4703773 3.8511647,6.2807681 C 4.9438803,3.9339326 6.8895898,2.029984 9.3380607,0.9116407 10.68996,0.29415789 15.424715,0.20233516 52.119156,0.08197202 74.812682,0.00753394 94.782498,0.07170976 96.496528,0.22458499 100.76632,0.60540969 103.63837,2.3349563 105.5008,5.6469611 l 1.34341,2.3890447 V 51.907553 c 0,41.435306 -0.0441,43.985679 -0.79294,45.926844 -0.94658,2.453493 -3.84084,5.170403 -6.289539,5.904113 -2.597889,0.77844 -87.860849,0.69006 -90.0535358,-0.0933 z"
   id="path2635" /></svg>
