<?xml version="1.0" encoding="UTF-8" standalone="no"?>
<svg
   xmlns:dc="http://purl.org/dc/elements/1.1/"
   xmlns:cc="http://creativecommons.org/ns#"
   xmlns:rdf="http://www.w3.org/1999/02/22-rdf-syntax-ns#"
   xmlns:svg="http://www.w3.org/2000/svg"
   xmlns="http://www.w3.org/2000/svg"
   xmlns:sodipodi="http://sodipodi.sourceforge.net/DTD/sodipodi-0.dtd"
   xmlns:inkscape="http://www.inkscape.org/namespaces/inkscape"
   inkscape:version="1.0 (4035a4fb49, 2020-05-01)"
   sodipodi:docname="linkedin-white.svg"
   xml:space="preserve"
   width="32px"
   viewBox="0 0 32 32"
   version="1.1"
   style="enable-background:new 0 0 32 32;"
   id="Layer_1"
   height="32px"><metadata
     id="metadata11"><rdf:RDF><cc:Work
         rdf:about=""><dc:format>image/svg+xml</dc:format><dc:type
           rdf:resource="http://purl.org/dc/dcmitype/StillImage" /><dc:title></dc:title></cc:Work></rdf:RDF></metadata><defs
     id="defs9" /><sodipodi:namedview
     inkscape:current-layer="Layer_1"
     inkscape:window-maximized="1"
     inkscape:window-y="-9"
     inkscape:window-x="-9"
     inkscape:cy="16"
     inkscape:cx="16"
     inkscape:zoom="25.9375"
     showgrid="false"
     id="namedview7"
     inkscape:window-height="1001"
     inkscape:window-width="1920"
     inkscape:pageshadow="2"
     inkscape:pageopacity="0"
     guidetolerance="10"
     gridtolerance="10"
     objecttolerance="10"
     borderopacity="1"
     bordercolor="#666666"
     pagecolor="#ff00ff" /><g
     style="fill:#ffffff;fill-opacity:1"
     id="g4"
     transform="translate(96 240)"><path
       style="fill:#ffffff;fill-opacity:1"
       id="path2"
       d="M-65.602-220.887v10.646h-6.172v-9.935c0-2.496-0.893-4.199-3.127-4.199c-1.707,0-2.721,1.148-3.168,2.259   c-0.162,0.397-0.205,0.948-0.205,1.505v10.37h-6.174c0,0,0.082-16.826,0-18.568h6.174v2.633c-0.012,0.02-0.028,0.041-0.041,0.06   h0.041v-0.06c0.82-1.265,2.285-3.068,5.564-3.068C-68.646-229.245-65.602-226.59-65.602-220.887L-65.602-220.887z M-90.904-237.76   c-2.113,0-3.494,1.387-3.494,3.209c0,1.78,1.342,3.209,3.412,3.209h0.041c2.151,0,3.491-1.428,3.491-3.209   c-0.041-1.822-1.34-3.209-3.452-3.209H-90.904z M-94.031-210.24h6.172v-18.568h-6.172V-210.24z" /></g></svg>
