<?xml version="1.0" encoding="UTF-8" standalone="no"?>
<svg
   xmlns:dc="http://purl.org/dc/elements/1.1/"
   xmlns:cc="http://creativecommons.org/ns#"
   xmlns:rdf="http://www.w3.org/1999/02/22-rdf-syntax-ns#"
   xmlns:svg="http://www.w3.org/2000/svg"
   xmlns="http://www.w3.org/2000/svg"
   xmlns:sodipodi="http://sodipodi.sourceforge.net/DTD/sodipodi-0.dtd"
   xmlns:inkscape="http://www.inkscape.org/namespaces/inkscape"
   inkscape:version="1.0 (4035a4fb49, 2020-05-01)"
   sodipodi:docname="mouse-white.svg"
   xml:space="preserve"
   style="enable-background:new 0 0 452.963 452.963;"
   viewBox="0 0 452.963 452.963"
   y="0px"
   x="0px"
   id="Capa_1"
   version="1.1"><metadata
   id="metadata941"><rdf:RDF><cc:Work
       rdf:about=""><dc:format>image/svg+xml</dc:format><dc:type
         rdf:resource="http://purl.org/dc/dcmitype/StillImage" /><dc:title /></cc:Work></rdf:RDF></metadata><defs
   id="defs939" /><sodipodi:namedview
   inkscape:current-layer="Capa_1"
   inkscape:window-maximized="1"
   inkscape:window-y="-9"
   inkscape:window-x="-9"
   inkscape:cy="174.54389"
   inkscape:cx="254.41255"
   inkscape:zoom="1.4142136"
   inkscape:pagecheckerboard="false"
   showgrid="true"
   id="namedview937"
   inkscape:window-height="1001"
   inkscape:window-width="1920"
   inkscape:pageshadow="2"
   inkscape:pageopacity="0"
   guidetolerance="10"
   gridtolerance="10"
   objecttolerance="10"
   borderopacity="1"
   bordercolor="#666666"
   pagecolor="#ff00ff"
   inkscape:document-rotation="0"><inkscape:grid
     id="grid945"
     type="xygrid" /></sodipodi:namedview>
<g
   id="g898"
   transform="matrix(1.4000515,0,0,1.4000285,-80.110175,-188.37356)">
	<g
   id="g896">
		<g
   id="g894">
			<path
   id="path888"
   d="m 121.473,353.698 c 0,54.823 44.443,99.265 99.265,99.265 54.823,0 99.265,-44.443 99.265,-99.265 v -82.024 h -198.53 z" />
			<path
   id="path890"
   d="m 121.473,256 h 84.114 c 0,-0.522 -0.522,-1.045 -0.522,-1.567 V 141.061 h -9.404 c -41.26,0.284 -74.478,33.963 -74.193,75.224 10e-4,0.177 0.003,0.354 0.006,0.532 V 256 Z" />
			<path
   id="path892"
   d="m 246.348,141.067 c -0.177,-0.003 -0.354,-0.004 -0.532,-0.006 h -9.404 V 256 h 83.592 v -39.184 c 0.578,-41.257 -32.399,-75.171 -73.656,-75.749 z" />
		</g>
	</g>
</g>

<g
   id="g906">
</g>
<g
   id="g908">
</g>
<g
   id="g910">
</g>
<g
   id="g912">
</g>
<g
   id="g914">
</g>
<g
   id="g916">
</g>
<g
   id="g918">
</g>
<g
   id="g920">
</g>
<g
   id="g922">
</g>
<g
   id="g924">
</g>
<g
   id="g926">
</g>
<g
   id="g928">
</g>
<g
   id="g930">
</g>
<g
   id="g932">
</g>
<g
   id="g934">
</g>
<path
   id="path951"
   d="m 90.001,141.01386 c 10e-4,-29.73252 0.0754,-33.5454 0.77126,-39.4918 2.22528,-19.01785 9.70804,-37.20265 21.45744,-52.14639 3.86303,-4.91327 10.66316,-11.97307 15.01834,-15.5918 9.59868,-7.9756 20.50986,-14.30071 31.47762,-18.24733 l 1.77467,-0.63861 h 23.20012 23.20013 l 0.0482,76.83475 c 0.0458,72.94295 0.0652,76.87101 0.38506,77.55102 L 207.67069,170 H 148.83534 90 Z"
   style="fill:#ffffff;stroke:#ffffff;stroke-width:0.953686;stroke-linecap:square" /><path
   id="path953"
   d="m 226.7809,156.52351 c -3.835,-0.83166 -6.95994,-3.67529 -8.28025,-7.53487 l -0.42472,-1.24159 -0.0502,-66.42454 -0.0502,-66.42458 h 11.27231 11.27232 l -0.003,66.13805 c -0.003,73.38147 0.10948,67.26626 -1.28892,69.93859 -2.27952,4.35593 -7.40758,6.64193 -12.44763,5.54894 z"
   style="fill:#ffffff;stroke:#ffffff;stroke-width:0.953686;stroke-linecap:square" /><path
   id="path955"
   d="M 251.02611,92.44898 V 14.89793 h 23.20931 23.2093 l 2.14799,0.78934 c 1.18141,0.43415 3.43737,1.34704 5.01326,2.02868 32.84033,14.20473 56.2413,44.20158 61.87655,79.31732 1.19281,7.43305 1.1359,5.50769 1.20419,40.73338 L 367.74921,170 h -58.3615 -58.36155 z"
   style="fill:#ffffff;stroke:#ffffff;stroke-width:0.953686;stroke-linecap:square" /><path
   id="path957"
   d="m 90.00002,228.63348 v -36.47604 h 138.93211 138.93209 v 36.47604 36.47601 H 228.93213 90.00002 Z"
   style="fill:#ffffff;stroke:#ffffff;stroke-width:1.748;stroke-linecap:square;stroke-miterlimit:4;stroke-dasharray:none" /><path
   id="path959"
   d="M 250.96889,11.75932 V 9.19306 l 7.86772,6.3e-4 c 7.84801,6.3e-4 10.33823,0.0829 14.55362,0.48066 6.48182,0.61166 13.62838,2.01003 19.98917,3.91128 1.15093,0.344 2.11836,0.65123 2.14984,0.68271 0.0315,0.0315 -9.98173,0.0573 -22.25155,0.0573 h -22.3088 z"
   style="fill:#ffffff;stroke:#ffffff;stroke-width:0.674358;stroke-linecap:square" /><path
   id="path963"
   d="m 162.83678,14.10528 c 2.21066,-0.82356 8.60129,-2.43156 12.55633,-3.15944 7.53841,-1.38732 12.44924,-1.74959 23.74329,-1.75148 l 7.80019,-10e-4 v 2.56626 2.56626 l -22.32004,-0.01 c -19.9332,-0.008 -22.26227,-0.0311 -21.77977,-0.21078 z"
   style="fill:#ffffff;stroke:#ffffff;stroke-width:0.674358;stroke-linecap:square" /><path
   id="path965"
   d="m 162.0358,14.27245 c 0.22654,-0.0748 0.41323,-0.136 0.41487,-0.13628 0.001,-1.2e-4 0.003,0.0254 0.003,0.0565 2.1e-4,0.0312 0.008,0.0672 0.0179,0.08 0.01,0.0126 0.0175,0.0486 0.0175,0.0807 v 0.0574 l -0.43277,-10e-4 -0.43276,-10e-4 z"
   style="fill:#ffffff;stroke:#ffffff;stroke-width:0.0596055;stroke-linecap:square" /><path
   id="path969"
   d="m 295.83966,14.40893 c 0.0112,-0.0254 0.0237,-0.0727 0.0272,-0.0985 0.003,-0.0158 0.006,-0.0287 0.007,-0.0287 9.9e-4,4e-5 0.0959,0.0308 0.20867,0.0682 l 0.20508,0.0682 -0.22617,1.9e-4 c -0.21333,1.6e-4 -0.22595,-3.7e-4 -0.22218,-0.01 z"
   style="fill:#ffffff;stroke:#ffffff;stroke-width:0.027305;stroke-linecap:square" /><path
   id="path971"
   d="m 220.19052,445.36041 c -37.30421,-2.59421 -71.2322,-19.32937 -95.6147,-47.16245 -16.57279,-18.91814 -27.7915,-42.07586 -32.15781,-66.38024 -1.8909,-10.5254 -1.87229,-10.16281 -2.01877,-39.32018 l -0.13763,-27.38805 h 138.8013 138.80131 l -0.003,21.61294 c -0.004,27.98771 -0.42661,35.03389 -2.82836,47.16346 -4.36382,22.03849 -13.6833,41.93641 -28.11416,60.02622 -4.57921,5.74026 -15.26894,16.40052 -21.20627,21.14779 -5.01851,4.01263 -13.48358,9.76274 -18.77606,12.7541 -16.05535,9.07465 -34.84111,15.04963 -53.51176,17.0199 -6.23555,0.65803 -17.62988,0.91623 -23.23397,0.52651 z"
   style="fill:#ffffff;stroke:#ffffff;stroke-width:1.74752;stroke-linecap:square" /></svg>
