<?xml version="1.0" encoding="UTF-8" standalone="no"?>
<svg
   xmlns:dc="http://purl.org/dc/elements/1.1/"
   xmlns:cc="http://creativecommons.org/ns#"
   xmlns:rdf="http://www.w3.org/1999/02/22-rdf-syntax-ns#"
   xmlns:svg="http://www.w3.org/2000/svg"
   xmlns="http://www.w3.org/2000/svg"
   xmlns:sodipodi="http://sodipodi.sourceforge.net/DTD/sodipodi-0.dtd"
   xmlns:inkscape="http://www.inkscape.org/namespaces/inkscape"
   inkscape:version="1.0 (4035a4fb49, 2020-05-01)"
   sodipodi:docname="search-white.svg"
   version="1.1"
   width="512"
   viewBox="0 0 515.558 515.558"
   height="512"
   enable-background="new 0 0 515.558 515.558"
   id="Capa_1">
  <metadata
     id="metadata3308">
    <rdf:RDF>
      <cc:Work
         rdf:about="">
        <dc:format>image/svg+xml</dc:format>
        <dc:type
           rdf:resource="http://purl.org/dc/dcmitype/StillImage" />
        <dc:title></dc:title>
      </cc:Work>
    </rdf:RDF>
  </metadata>
  <defs
     id="defs3306" />
  <sodipodi:namedview
     inkscape:current-layer="Capa_1"
     inkscape:window-maximized="1"
     inkscape:window-y="-9"
     inkscape:window-x="-9"
     inkscape:cy="254.76627"
     inkscape:cx="256"
     inkscape:zoom="1.6210938"
     showgrid="false"
     id="namedview3304"
     inkscape:window-height="1001"
     inkscape:window-width="1920"
     inkscape:pageshadow="2"
     inkscape:pageopacity="0"
     guidetolerance="10"
     gridtolerance="10"
     objecttolerance="10"
     borderopacity="1"
     bordercolor="#666666"
     pagecolor="#ff00ff" />
  <path
     id="path3301"
     d="m378.344 332.78c25.37-34.645 40.545-77.2 40.545-123.333 0-115.484-93.961-209.445-209.445-209.445s-209.444 93.961-209.444 209.445 93.961 209.445 209.445 209.445c46.133 0 88.692-15.177 123.337-40.547l137.212 137.212 45.564-45.564c0-.001-137.214-137.213-137.214-137.213zm-168.899 21.667c-79.958 0-145-65.042-145-145s65.042-145 145-145 145 65.042 145 145-65.043 145-145 145z" />
  <path
     transform="scale(1.0069492)"
     id="path3871"
     d="m 398.80378,443.52667 c -37.31875,-37.31991 -68.08808,-67.85438 -68.37627,-67.85438 -0.2882,0 -2.64819,1.48767 -5.24443,3.30593 -27.37392,19.17124 -60.58988,31.50423 -96.01681,35.65078 -8.73862,1.02281 -33.81107,1.02392 -42.56386,0.002 C 138.88012,409.05851 96.911742,389.3279 63.511065,356.76191 27.766727,321.91084 6.2675993,277.32387 1.2428546,227.6241 0.25676812,217.87071 0.42248685,196.02614 1.5610937,185.67473 9.1245309,116.91332 50.159687,56.715244 111.65301,24.171218 129.28653,14.839056 150.16158,7.571894 170.25542,3.7701576 c 20.98449,-3.97024741 48.24202,-4.3465178 69.6121,-0.9609446 57.7701,9.152276 108.46986,41.735773 141.04505,90.646209 18.8274,28.268648 29.61074,58.055548 33.72072,93.146988 1.01608,8.67535 1.00854,33.74343 -0.0128,42.56386 -4.07576,35.19892 -16.51233,68.70186 -35.64227,96.01681 -1.81826,2.59624 -3.30593,4.95529 -3.30593,5.24233 0,0.28705 30.53542,31.05826 67.85648,68.38047 l 67.85649,67.85857 -22.3646,22.3583 -22.3646,22.35831 z M 231.01687,350.42384 C 261.838,345.16941 288.35359,331.5824 309.968,309.968 c 21.95705,-21.95706 35.64917,-49.06517 40.81241,-80.80173 1.5584,-9.57897 1.56484,-32.33861 0.012,-42.23344 C 344.09494,144.25792 319.7686,107.50874 283.27348,84.933786 267.35395,75.086367 248.45627,68.22326 229.20452,65.297464 219.10497,63.76258 199.35418,63.450605 190.61205,64.687881 c -33.71926,4.772284 -61.54715,18.395722 -84.5378,41.386369 -17.640395,17.6404 -30.352639,39.24736 -36.876272,62.67848 -3.985679,14.3155 -5.251282,23.83662 -5.242596,39.44004 0.0056,9.49827 0.312178,14.33351 1.333624,21.01175 4.882815,31.9241 19.63718,60.39319 42.878944,82.73649 24.04372,23.11426 52.92888,36.26147 87.68747,39.91137 6.40358,0.67241 27.97964,-0.20417 35.16145,-1.42854 z"
     style="fill:#ffffff;stroke:#ffffff;stroke-width:3.07987;stroke-linecap:square" />
</svg>
