<?xml version="1.0" encoding="UTF-8" standalone="no"?>
<svg
   xmlns:dc="http://purl.org/dc/elements/1.1/"
   xmlns:cc="http://creativecommons.org/ns#"
   xmlns:rdf="http://www.w3.org/1999/02/22-rdf-syntax-ns#"
   xmlns:svg="http://www.w3.org/2000/svg"
   xmlns="http://www.w3.org/2000/svg"
   xmlns:sodipodi="http://sodipodi.sourceforge.net/DTD/sodipodi-0.dtd"
   xmlns:inkscape="http://www.inkscape.org/namespaces/inkscape"
   inkscape:version="1.0 (4035a4fb49, 2020-05-01)"
   sodipodi:docname="send_white.svg"
   version="1.1"
   width="512"
   viewBox="0 0 512.005 512.005"
   height="512"
   enable-background="new 0 0 512.005 512.005"
   id="Capa_1">
  <metadata
     id="metadata11">
    <rdf:RDF>
      <cc:Work
         rdf:about="">
        <dc:format>image/svg+xml</dc:format>
        <dc:type
           rdf:resource="http://purl.org/dc/dcmitype/StillImage" />
        <dc:title></dc:title>
      </cc:Work>
    </rdf:RDF>
  </metadata>
  <defs
     id="defs9" />
  <sodipodi:namedview
     inkscape:current-layer="Capa_1"
     inkscape:window-maximized="0"
     inkscape:window-y="0"
     inkscape:window-x="0"
     inkscape:cy="170.2896"
     inkscape:cx="235.72633"
     inkscape:zoom="0.81054688"
     showgrid="false"
     id="namedview7"
     inkscape:window-height="933"
     inkscape:window-width="1089"
     inkscape:pageshadow="2"
     inkscape:pageopacity="0"
     guidetolerance="10"
     gridtolerance="10"
     objecttolerance="10"
     borderopacity="1"
     bordercolor="#666666"
     pagecolor="#ff00ff" />
  <g
     style="fill:#ffffff;fill-opacity:1"
     id="g4">
    <path
       style="fill:#ffffff;fill-opacity:1"
       id="path2"
       d="m511.658 51.675c2.496-11.619-8.895-21.416-20.007-17.176l-482 184c-5.801 2.215-9.638 7.775-9.65 13.984-.012 6.21 3.803 11.785 9.596 14.022l135.403 52.295v164.713c0 6.948 4.771 12.986 11.531 14.593 6.715 1.597 13.717-1.598 16.865-7.843l56.001-111.128 136.664 101.423c8.313 6.17 20.262 2.246 23.287-7.669 127.599-418.357 122.083-400.163 122.31-401.214zm-118.981 52.718-234.803 167.219-101.028-39.018zm-217.677 191.852 204.668-145.757c-176.114 185.79-166.916 176.011-167.684 177.045-1.141 1.535 1.985-4.448-36.984 72.882zm191.858 127.546-120.296-89.276 217.511-229.462z" />
  </g>
</svg>
