<?xml version="1.0" encoding="UTF-8" standalone="no"?>
<svg
   xmlns:dc="http://purl.org/dc/elements/1.1/"
   xmlns:cc="http://creativecommons.org/ns#"
   xmlns:rdf="http://www.w3.org/1999/02/22-rdf-syntax-ns#"
   xmlns:svg="http://www.w3.org/2000/svg"
   xmlns="http://www.w3.org/2000/svg"
   xmlns:sodipodi="http://sodipodi.sourceforge.net/DTD/sodipodi-0.dtd"
   xmlns:inkscape="http://www.inkscape.org/namespaces/inkscape"
   version="1.1"
   id="Capa_1"
   x="0px"
   y="0px"
   viewBox="0 0 480.56 480.56"
   style="enable-background:new 0 0 480.56 480.56;"
   xml:space="preserve"
   sodipodi:docname="telephone-dark.svg"
   inkscape:version="1.0 (4035a4fb49, 2020-05-01)"><metadata
   id="metadata1075"><rdf:RDF><cc:Work
       rdf:about=""><dc:format>image/svg+xml</dc:format><dc:type
         rdf:resource="http://purl.org/dc/dcmitype/StillImage" /><dc:title></dc:title></cc:Work></rdf:RDF></metadata><defs
   id="defs1073" /><sodipodi:namedview
   inkscape:document-rotation="0"
   pagecolor="#ff00ff"
   bordercolor="#666666"
   borderopacity="1"
   objecttolerance="10"
   gridtolerance="10"
   guidetolerance="10"
   inkscape:pageopacity="0"
   inkscape:pageshadow="2"
   inkscape:window-width="1920"
   inkscape:window-height="1001"
   id="namedview1071"
   showgrid="false"
   inkscape:zoom="1.6584818"
   inkscape:cx="240.28"
   inkscape:cy="240.28"
   inkscape:window-x="-9"
   inkscape:window-y="-9"
   inkscape:window-maximized="1"
   inkscape:current-layer="Capa_1" />
<g
   id="g1038">
	<g
   id="g1036">
		<path
   d="M365.354,317.9c-15.7-15.5-35.3-15.5-50.9,0c-11.9,11.8-23.8,23.6-35.5,35.6c-3.2,3.3-5.9,4-9.8,1.8    c-7.7-4.2-15.9-7.6-23.3-12.2c-34.5-21.7-63.4-49.6-89-81c-12.7-15.6-24-32.3-31.9-51.1c-1.6-3.8-1.3-6.3,1.8-9.4    c11.9-11.5,23.5-23.3,35.2-35.1c16.3-16.4,16.3-35.6-0.1-52.1c-9.3-9.4-18.6-18.6-27.9-28c-9.6-9.6-19.1-19.3-28.8-28.8    c-15.7-15.3-35.3-15.3-50.9,0.1c-12,11.8-23.5,23.9-35.7,35.5c-11.3,10.7-17,23.8-18.2,39.1c-1.9,24.9,4.2,48.4,12.8,71.3    c17.6,47.4,44.4,89.5,76.9,128.1c43.9,52.2,96.3,93.5,157.6,123.3c27.6,13.4,56.2,23.7,87.3,25.4c21.4,1.2,40-4.2,54.9-20.9    c10.2-11.4,21.7-21.8,32.5-32.7c16-16.2,16.1-35.8,0.2-51.8C403.554,355.9,384.454,336.9,365.354,317.9z"
   id="path1030" />
		<path
   d="M346.254,238.2l36.9-6.3c-5.8-33.9-21.8-64.6-46.1-89c-25.7-25.7-58.2-41.9-94-46.9l-5.2,37.1    c27.7,3.9,52.9,16.4,72.8,36.3C329.454,188.2,341.754,212,346.254,238.2z"
   id="path1032" />
		<path
   d="M403.954,77.8c-42.6-42.6-96.5-69.5-156-77.8l-5.2,37.1c51.4,7.2,98,30.5,134.8,67.2c34.9,34.9,57.8,79,66.1,127.5    l36.9-6.3C470.854,169.3,444.354,118.3,403.954,77.8z"
   id="path1034" />
	</g>
</g>
<g
   id="g1040">
</g>
<g
   id="g1042">
</g>
<g
   id="g1044">
</g>
<g
   id="g1046">
</g>
<g
   id="g1048">
</g>
<g
   id="g1050">
</g>
<g
   id="g1052">
</g>
<g
   id="g1054">
</g>
<g
   id="g1056">
</g>
<g
   id="g1058">
</g>
<g
   id="g1060">
</g>
<g
   id="g1062">
</g>
<g
   id="g1064">
</g>
<g
   id="g1066">
</g>
<g
   id="g1068">
</g>
<path
   style="fill:#363345;stroke:#363345;stroke-width:3.01044;stroke-linecap:square;fill-opacity:1;stroke-opacity:1"
   d="m 328.31232,479.60787 c -24.816,-2.35478 -51.7885,-10.87447 -82.90715,-26.18754 C 170.68961,416.65383 106.52894,360.28551 58.031854,288.80362 31.439283,249.60772 10.138607,203.00198 3.3365152,169.13059 -2.5835896,139.6511 0.05288855,117.86295 11.471712,101.90043 12.8951,99.910655 24.191551,88.238099 36.574939,75.961413 60.56769,52.175396 62.713116,50.418308 70.847242,47.892714 c 6.591595,-2.046647 14.790865,-1.541858 21.560696,1.327386 6.327148,2.681623 10.483462,6.455529 41.313592,37.51247 32.48841,32.72742 35.46034,36.12013 38.3259,43.7523 2.0987,5.58973 2.17079,13.71744 0.17337,19.54745 -2.56445,7.48503 -6.0753,11.73406 -27.21163,32.93304 -10.90613,10.93845 -20.11537,20.42259 -20.46499,21.07585 -1.56321,2.92088 -0.77091,5.69226 4.82709,16.88472 10.43732,20.86803 27.59074,43.90286 50.31114,67.56139 27.35543,28.48494 52.90686,48.47679 79.3575,62.09056 9.62967,4.95625 12.28305,6.07361 14.42295,6.07361 h 2.62233 l 21.13914,-21.03617 c 22.00785,-21.90065 25.44002,-24.77459 32.46107,-27.18137 8.24301,-2.82565 15.89371,-2.23422 24.49547,1.8936 4.93368,2.36758 5.74943,3.1009 31.14545,27.99819 31.59478,30.97432 39.4692,39.11926 42.8509,44.32305 4.11459,6.33155 5.17562,9.57205 5.5067,16.81815 0.25919,5.67292 0.12867,6.79876 -1.24667,10.75357 -2.80107,8.05448 -4.58987,10.33501 -20.89799,26.6428 -8.4666,8.46642 -18.46257,18.55091 -22.21327,22.40997 -3.7507,3.85907 -8.84145,8.4143 -11.31278,10.12273 -12.96216,8.96072 -28.73432,12.20137 -49.70089,10.21186 z"
   id="path1077" /><path
   style="fill:#363345;stroke:#363345;stroke-width:3.01044;stroke-linecap:square;fill-opacity:1;stroke-opacity:1"
   d="m 345.26087,231.70807 c -9.4045,-41.89284 -39.4162,-76.50384 -79.60734,-91.80716 -6.31931,-2.40617 -16.89823,-5.32697 -23.11243,-6.38127 -3.10047,-0.52602 -4.06929,-0.92712 -4.06707,-1.6838 0.002,-0.5463 1.08693,-8.71118 2.41184,-18.14417 1.32492,-9.43299 2.40894,-17.196175 2.40894,-17.25152 0,-0.529086 16.22677,2.947255 23.214,4.97325 53.6277,15.54972 96.23005,58.34276 112.13585,112.63779 2.07883,7.09616 4.28622,17.03332 3.87503,17.4445 -0.13737,0.13738 -7.57407,1.49277 -16.52601,3.01198 -8.95193,1.51921 -16.96577,2.90593 -17.80854,3.08161 -1.49774,0.31221 -1.56369,0.17957 -2.92427,-5.88121 z"
   id="path1079" /><path
   style="fill:#363345;stroke:#363345;stroke-width:3.01044;stroke-linecap:square;fill-opacity:1;stroke-opacity:1"
   d="m 443.80406,230.48188 c -0.13142,-0.41453 -0.81792,-3.60269 -1.52556,-7.08479 C 430.88995,167.35681 398.53225,116.66863 351.70964,81.521384 331.65938,66.470716 306.71892,53.613056 282.48728,45.834885 c -8.52603,-2.736788 -24.03074,-6.501364 -32.71064,-7.942208 -4.09883,-0.680396 -6.48183,-1.34565 -6.48183,-1.809506 0,-0.403444 1.08414,-8.415871 2.40921,-17.805392 1.32507,-9.3895209 2.4104,-17.28765108 2.41185,-17.55139966 0.003,-0.52468714 0.70324,-0.42702461 12.66481,1.76602776 98.53374,18.0653359 180.96101,91.5398839 210.95599,188.0433029 3.58087,11.52078 8.89629,33.89385 8.21453,34.57562 -0.231,0.231 -33.91533,6.08931 -35.13557,6.1107 -0.42495,0.007 -0.88015,-0.32561 -1.01157,-0.74015 z"
   id="path1081" /></svg>
