<?xml version="1.0" encoding="UTF-8" standalone="no"?>
<svg
   xmlns:dc="http://purl.org/dc/elements/1.1/"
   xmlns:cc="http://creativecommons.org/ns#"
   xmlns:rdf="http://www.w3.org/1999/02/22-rdf-syntax-ns#"
   xmlns:svg="http://www.w3.org/2000/svg"
   xmlns="http://www.w3.org/2000/svg"
   xmlns:sodipodi="http://sodipodi.sourceforge.net/DTD/sodipodi-0.dtd"
   xmlns:inkscape="http://www.inkscape.org/namespaces/inkscape"
   height="183.32857"
   width="182.51407"
   version="1.1"
   id="Layer_1"
   x="0px"
   y="0px"
   viewBox="0 0 182.51407 183.32857"
   xml:space="preserve"
   sodipodi:docname="shield-pink.svg"
   inkscape:version="1.0 (4035a4fb49, 2020-05-01)"><metadata
   id="metadata49"><rdf:RDF><cc:Work
       rdf:about=""><dc:format>image/svg+xml</dc:format><dc:type
         rdf:resource="http://purl.org/dc/dcmitype/StillImage" /><dc:title /></cc:Work></rdf:RDF></metadata><defs
   id="defs47" /><sodipodi:namedview
   inkscape:document-rotation="0"
   pagecolor="#ff00ff"
   bordercolor="#666666"
   borderopacity="1"
   objecttolerance="10"
   gridtolerance="10"
   guidetolerance="10"
   inkscape:pageopacity="0"
   inkscape:pageshadow="2"
   inkscape:window-width="1920"
   inkscape:window-height="1001"
   id="namedview45"
   showgrid="false"
   inkscape:zoom="2.7666667"
   inkscape:cx="49.697981"
   inkscape:cy="92.117856"
   inkscape:window-x="-9"
   inkscape:window-y="-9"
   inkscape:window-maximized="1"
   inkscape:current-layer="Layer_1" />

<g
   transform="translate(-58.735749,-57.882144)"
   id="g14">
</g>
<g
   transform="translate(-58.735749,-57.882144)"
   id="g16">
</g>
<g
   transform="translate(-58.735749,-57.882144)"
   id="g18">
</g>
<g
   transform="translate(-58.735749,-57.882144)"
   id="g20">
</g>
<g
   transform="translate(-58.735749,-57.882144)"
   id="g22">
</g>
<g
   transform="translate(-58.735749,-57.882144)"
   id="g24">
</g>
<g
   transform="translate(-58.735749,-57.882144)"
   id="g26">
</g>
<g
   transform="translate(-58.735749,-57.882144)"
   id="g28">
</g>
<g
   transform="translate(-58.735749,-57.882144)"
   id="g30">
</g>
<g
   transform="translate(-58.735749,-57.882144)"
   id="g32">
</g>
<g
   transform="translate(-58.735749,-57.882144)"
   id="g34">
</g>
<g
   transform="translate(-58.735749,-57.882144)"
   id="g36">
</g>
<g
   transform="translate(-58.735749,-57.882144)"
   id="g38">
</g>
<g
   transform="translate(-58.735749,-57.882144)"
   id="g40">
</g>
<g
   transform="translate(-58.735749,-57.882144)"
   id="g42">
</g>
<path
   style="fill:#f62459;fill-opacity:1;stroke:#ffffff;stroke-width:1.80461;stroke-linecap:square;stroke-opacity:0"
   d="M 81.390831,181.92139 C 50.685901,177.73787 27.388426,153.48075 13.344888,111.07258 7.4739645,93.343776 3.2530115,72.118606 1.4531115,51.274486 1.1527055,47.795566 0.90599351,43.713916 0.90486151,42.204156 l -0.0021,-2.745025 16.35542249,-6.96184 C 26.253709,28.66828 46.588801,20.010633 62.447321,13.258075 L 91.281001,0.98069804 117.74852,12.250842 c 39.18363,16.684785 62.91573,26.783832 63.42537,26.990265 0.61444,0.24888 0.58253,4.146489 -0.0985,12.033379 -2.17948,25.23997 -7.79131,50.364144 -15.74311,70.481924 -2.46231,6.22958 -8.25832,17.83692 -11.43024,22.89073 -13.78108,21.95732 -31.52135,34.4229 -53.0693,37.29029 -4.867999,0.64778 -14.628889,0.63973 -19.441909,-0.0161 z m 18.964009,-15.32542 c 17.59843,-3.0142 31.75961,-14.34053 43.26979,-34.60781 5.23141,-9.21155 10.7122,-23.13489 14.0939,-35.804034 l 1.08539,-4.06627 H 125.03408 91.264251 v -37.22892 c 0,-20.475899 -0.10112,-37.228911 -0.22471,-37.228911 -0.17673,0 -74.217895,31.406751 -74.481645,31.593591 -0.137485,0.0974 1.343893,12.48149 2.079261,17.38231 0.879426,5.86088 2.837796,15.99516 4.173336,21.59639 l 0.926456,3.88554 h 33.763652 33.76365 v 37.590364 37.59036 h 2.4942 c 1.37181,0 4.34019,-0.31617 6.596389,-0.70261 z"
   id="path876" /></svg>
